<svg width="334" height="751" viewBox="0 0 334 751" fill="none" xmlns="http://www.w3.org/2000/svg">
<path fill-rule="evenodd" clip-rule="evenodd" d="M248.157 561.012C257.617 570.457 257.665 585.817 248.263 595.32C238.861 604.823 223.57 604.87 214.109 595.425L120.669 502.143C111.201 492.79 95.9783 492.867 86.6065 502.34C77.2046 511.842 77.252 527.202 86.7126 536.647L87.8119 537.744L87.8114 537.745L97.2465 547.164C106.707 556.608 106.755 571.968 97.3525 581.471C87.9505 590.974 72.6594 591.021 63.1989 581.577L53.7638 572.158L3.37112 521.85C-6.08945 512.406 -21.3806 512.453 -30.7826 521.956C-40.1399 531.414 -40.1373 546.673 -30.8107 556.128L71.5827 658.348C81.0432 667.792 81.0907 683.152 71.6887 692.655C62.2867 702.158 46.9956 702.205 37.5351 692.761L-14.331 640.983L-231.872 423.81L-234.091 421.595C-300.315 355.483 -300.647 247.964 -234.833 181.444C-169.019 114.925 -61.9815 114.594 4.24238 180.705L224.002 400.093L224.002 400.093L241.221 417.283C250.681 426.727 250.729 442.087 241.327 451.59C231.925 461.093 216.634 461.14 207.173 451.695L189.955 434.506L189.954 434.506L125.865 370.525C116.404 361.081 101.113 361.128 91.7109 370.631C82.3322 380.11 82.3563 395.418 91.747 404.868L248.157 561.012Z" fill="#002E4D"/>
<rect x="84" y="103" width="8" height="32" fill="#002E4D"/>
<rect x="72" y="123" width="8" height="32" transform="rotate(-90 72 123)" fill="#002E4D"/>
<rect x="188" y="213" width="8" height="32" fill="#002E4D"/>
<rect x="176" y="233" width="8" height="32" transform="rotate(-90 176 233)" fill="#002E4D"/>
<rect x="190" y="123" width="4" height="16" fill="#002E4D"/>
<rect x="184" y="133" width="4" height="16" transform="rotate(-90 184 133)" fill="#002E4D"/>
<rect x="74" width="4" height="16" fill="#002E4D"/>
<rect x="68" y="10" width="4" height="16" transform="rotate(-90 68 10)" fill="#002E4D"/>
</svg>
